<svg width="46" height="24" viewBox="0 0 46 24" fill="none" xmlns="http://www.w3.org/2000/svg">
<path d="M1.96911 16.5V6.31818H8.59126V7.86435H3.81357V10.6286H8.24822V12.1747H3.81357V14.9538H8.63104V16.5H1.96911ZM12.1932 12.0256V16.5H10.3935V8.86364H12.1136V10.1612H12.2031C12.3788 9.73366 12.6589 9.39394 13.0433 9.14205C13.4311 8.89015 13.91 8.7642 14.4801 8.7642C15.0071 8.7642 15.4661 8.87689 15.8572 9.10227C16.2517 9.32765 16.5566 9.65412 16.772 10.0817C16.9908 10.5092 17.0985 11.0279 17.0952 11.6378V16.5H15.2955V11.9162C15.2955 11.4058 15.1629 11.0064 14.8977 10.718C14.6359 10.4297 14.273 10.2855 13.8089 10.2855C13.4941 10.2855 13.214 10.3551 12.9688 10.4943C12.7268 10.6302 12.5362 10.8274 12.397 11.0859C12.2611 11.3445 12.1932 11.6577 12.1932 12.0256Z" fill="#0A0A0A"/>
<path d="M28 10L34 16L40 10" stroke="#0A0A0A" stroke-width="2" stroke-linecap="round" stroke-linejoin="round"/>
</svg>
